<mxfile host="app.diagrams.net" modified="2023-08-11T00:50:38.030Z" agent="Mozilla/5.0 (Windows NT 10.0; Win64; x64) AppleWebKit/537.36 (KHTML, like Gecko) Chrome/115.0.0.0 Safari/537.36" etag="9cT_zJccP7Kw-giY6wrt" version="21.4.0" type="device">
  <diagram name="Página-1" id="JNVWJWMZmCfeXrbREW4M">
    <mxGraphModel dx="2311" dy="689" grid="1" gridSize="10" guides="1" tooltips="1" connect="1" arrows="1" fold="1" page="1" pageScale="1" pageWidth="827" pageHeight="1169" math="0" shadow="0">
      <root>
        <mxCell id="0" />
        <mxCell id="1" parent="0" />
        <mxCell id="6B6Z-brlQ0UozbAUhB1C-15" style="edgeStyle=orthogonalEdgeStyle;rounded=0;orthogonalLoop=1;jettySize=auto;html=1;exitX=1;exitY=0.5;exitDx=0;exitDy=0;entryX=0;entryY=0.5;entryDx=0;entryDy=0;" edge="1" parent="1" source="6B6Z-brlQ0UozbAUhB1C-1" target="6B6Z-brlQ0UozbAUhB1C-6">
          <mxGeometry relative="1" as="geometry" />
        </mxCell>
        <mxCell id="6B6Z-brlQ0UozbAUhB1C-1" value="&lt;font style=&quot;vertical-align: inherit;&quot;&gt;&lt;font style=&quot;vertical-align: inherit;&quot;&gt;&lt;font style=&quot;vertical-align: inherit;&quot;&gt;&lt;font style=&quot;vertical-align: inherit;&quot;&gt;&lt;font style=&quot;vertical-align: inherit;&quot;&gt;&lt;font style=&quot;vertical-align: inherit;&quot;&gt;API-Back-End / Java - SpringBoot&lt;/font&gt;&lt;/font&gt;&lt;/font&gt;&lt;/font&gt;&lt;/font&gt;&lt;/font&gt;" style="rounded=1;whiteSpace=wrap;html=1;" vertex="1" parent="1">
          <mxGeometry x="200" y="70" width="240" height="60" as="geometry" />
        </mxCell>
        <mxCell id="6B6Z-brlQ0UozbAUhB1C-3" value="&lt;font style=&quot;vertical-align: inherit;&quot;&gt;&lt;font style=&quot;vertical-align: inherit;&quot;&gt;Banco de dados&lt;/font&gt;&lt;/font&gt;" style="rounded=1;whiteSpace=wrap;html=1;" vertex="1" parent="1">
          <mxGeometry x="200" y="160" width="240" height="60" as="geometry" />
        </mxCell>
        <mxCell id="6B6Z-brlQ0UozbAUhB1C-32" style="edgeStyle=orthogonalEdgeStyle;rounded=0;orthogonalLoop=1;jettySize=auto;html=1;entryX=0;entryY=0.5;entryDx=0;entryDy=0;" edge="1" parent="1" source="6B6Z-brlQ0UozbAUhB1C-4" target="6B6Z-brlQ0UozbAUhB1C-28">
          <mxGeometry relative="1" as="geometry">
            <Array as="points">
              <mxPoint x="510" y="280" />
              <mxPoint x="510" y="280" />
            </Array>
          </mxGeometry>
        </mxCell>
        <mxCell id="6B6Z-brlQ0UozbAUhB1C-4" value="&lt;font style=&quot;vertical-align: inherit;&quot;&gt;&lt;font style=&quot;vertical-align: inherit;&quot;&gt;Front&lt;/font&gt;&lt;/font&gt;" style="rounded=1;whiteSpace=wrap;html=1;" vertex="1" parent="1">
          <mxGeometry x="200" y="250" width="240" height="60" as="geometry" />
        </mxCell>
        <mxCell id="6B6Z-brlQ0UozbAUhB1C-17" style="edgeStyle=orthogonalEdgeStyle;rounded=0;orthogonalLoop=1;jettySize=auto;html=1;entryX=0;entryY=0.5;entryDx=0;entryDy=0;" edge="1" parent="1" source="6B6Z-brlQ0UozbAUhB1C-5" target="6B6Z-brlQ0UozbAUhB1C-16">
          <mxGeometry relative="1" as="geometry">
            <Array as="points">
              <mxPoint x="500" y="580" />
              <mxPoint x="500" y="580" />
            </Array>
          </mxGeometry>
        </mxCell>
        <mxCell id="6B6Z-brlQ0UozbAUhB1C-5" value="&lt;font style=&quot;vertical-align: inherit;&quot;&gt;&lt;font style=&quot;vertical-align: inherit;&quot;&gt;Deploy&lt;/font&gt;&lt;/font&gt;" style="rounded=1;whiteSpace=wrap;html=1;" vertex="1" parent="1">
          <mxGeometry x="180" y="550" width="240" height="60" as="geometry" />
        </mxCell>
        <mxCell id="6B6Z-brlQ0UozbAUhB1C-37" style="edgeStyle=orthogonalEdgeStyle;rounded=0;orthogonalLoop=1;jettySize=auto;html=1;entryX=0;entryY=0.5;entryDx=0;entryDy=0;" edge="1" parent="1" source="6B6Z-brlQ0UozbAUhB1C-6" target="6B6Z-brlQ0UozbAUhB1C-36">
          <mxGeometry relative="1" as="geometry" />
        </mxCell>
        <mxCell id="6B6Z-brlQ0UozbAUhB1C-6" value="&lt;font style=&quot;vertical-align: inherit;&quot;&gt;&lt;font style=&quot;vertical-align: inherit;&quot;&gt;&lt;font style=&quot;vertical-align: inherit;&quot;&gt;&lt;font style=&quot;vertical-align: inherit;&quot;&gt;Testes automatizados&lt;br&gt;&lt;/font&gt;&lt;/font&gt;&lt;/font&gt;&lt;/font&gt;" style="rounded=1;whiteSpace=wrap;html=1;" vertex="1" parent="1">
          <mxGeometry x="560" y="70" width="240" height="60" as="geometry" />
        </mxCell>
        <mxCell id="6B6Z-brlQ0UozbAUhB1C-10" value="" style="edgeStyle=segmentEdgeStyle;endArrow=classic;html=1;curved=0;rounded=0;endSize=8;startSize=8;entryX=0;entryY=0.5;entryDx=0;entryDy=0;" edge="1" parent="1" target="6B6Z-brlQ0UozbAUhB1C-1">
          <mxGeometry width="50" height="50" relative="1" as="geometry">
            <mxPoint x="120" y="100" as="sourcePoint" />
            <mxPoint x="170" y="50" as="targetPoint" />
            <Array as="points">
              <mxPoint x="180" y="100" />
              <mxPoint x="180" y="100" />
            </Array>
          </mxGeometry>
        </mxCell>
        <mxCell id="6B6Z-brlQ0UozbAUhB1C-12" value="" style="endArrow=classic;html=1;rounded=0;entryX=0;entryY=0.5;entryDx=0;entryDy=0;" edge="1" parent="1" target="6B6Z-brlQ0UozbAUhB1C-3">
          <mxGeometry width="50" height="50" relative="1" as="geometry">
            <mxPoint x="120" y="190" as="sourcePoint" />
            <mxPoint x="200" y="130" as="targetPoint" />
            <Array as="points" />
          </mxGeometry>
        </mxCell>
        <mxCell id="6B6Z-brlQ0UozbAUhB1C-13" value="" style="endArrow=classic;html=1;rounded=0;entryX=0;entryY=0.5;entryDx=0;entryDy=0;" edge="1" parent="1">
          <mxGeometry width="50" height="50" relative="1" as="geometry">
            <mxPoint x="120" y="279.67" as="sourcePoint" />
            <mxPoint x="200" y="279.67" as="targetPoint" />
            <Array as="points">
              <mxPoint x="160" y="279.67" />
            </Array>
          </mxGeometry>
        </mxCell>
        <mxCell id="6B6Z-brlQ0UozbAUhB1C-14" value="" style="endArrow=classic;html=1;rounded=0;entryX=0;entryY=0.5;entryDx=0;entryDy=0;" edge="1" parent="1">
          <mxGeometry width="50" height="50" relative="1" as="geometry">
            <mxPoint x="120" y="570" as="sourcePoint" />
            <mxPoint x="200" y="570" as="targetPoint" />
            <Array as="points">
              <mxPoint x="160" y="570" />
            </Array>
          </mxGeometry>
        </mxCell>
        <mxCell id="6B6Z-brlQ0UozbAUhB1C-19" style="edgeStyle=orthogonalEdgeStyle;rounded=0;orthogonalLoop=1;jettySize=auto;html=1;exitX=0;exitY=0.5;exitDx=0;exitDy=0;entryX=0;entryY=0.5;entryDx=0;entryDy=0;" edge="1" parent="1" source="6B6Z-brlQ0UozbAUhB1C-16" target="6B6Z-brlQ0UozbAUhB1C-18">
          <mxGeometry relative="1" as="geometry" />
        </mxCell>
        <mxCell id="6B6Z-brlQ0UozbAUhB1C-16" value="&lt;font style=&quot;vertical-align: inherit;&quot;&gt;&lt;font style=&quot;vertical-align: inherit;&quot;&gt;Perfis de testes&lt;/font&gt;&lt;/font&gt;" style="rounded=1;whiteSpace=wrap;html=1;" vertex="1" parent="1">
          <mxGeometry x="550" y="550" width="250" height="60" as="geometry" />
        </mxCell>
        <mxCell id="6B6Z-brlQ0UozbAUhB1C-18" value="&lt;font style=&quot;vertical-align: inherit;&quot;&gt;&lt;font style=&quot;vertical-align: inherit;&quot;&gt;Deploy Automatizado (CI/CD) com&lt;br&gt;ações GitHub&lt;br&gt;&lt;/font&gt;&lt;/font&gt;" style="rounded=1;whiteSpace=wrap;html=1;" vertex="1" parent="1">
          <mxGeometry x="560" y="660" width="240" height="60" as="geometry" />
        </mxCell>
        <mxCell id="6B6Z-brlQ0UozbAUhB1C-21" style="edgeStyle=orthogonalEdgeStyle;rounded=0;orthogonalLoop=1;jettySize=auto;html=1;exitX=0;exitY=0.5;exitDx=0;exitDy=0;entryX=0;entryY=0.5;entryDx=0;entryDy=0;" edge="1" parent="1" target="6B6Z-brlQ0UozbAUhB1C-20">
          <mxGeometry relative="1" as="geometry">
            <mxPoint x="490" y="580" as="sourcePoint" />
          </mxGeometry>
        </mxCell>
        <mxCell id="6B6Z-brlQ0UozbAUhB1C-23" style="edgeStyle=orthogonalEdgeStyle;rounded=0;orthogonalLoop=1;jettySize=auto;html=1;entryX=0;entryY=0.5;entryDx=0;entryDy=0;" edge="1" parent="1" source="6B6Z-brlQ0UozbAUhB1C-20" target="6B6Z-brlQ0UozbAUhB1C-22">
          <mxGeometry relative="1" as="geometry">
            <Array as="points">
              <mxPoint x="660" y="930" />
            </Array>
          </mxGeometry>
        </mxCell>
        <mxCell id="6B6Z-brlQ0UozbAUhB1C-25" style="edgeStyle=orthogonalEdgeStyle;rounded=0;orthogonalLoop=1;jettySize=auto;html=1;entryX=0;entryY=0.5;entryDx=0;entryDy=0;" edge="1" parent="1" source="6B6Z-brlQ0UozbAUhB1C-20" target="6B6Z-brlQ0UozbAUhB1C-24">
          <mxGeometry relative="1" as="geometry">
            <Array as="points">
              <mxPoint x="660" y="1030" />
            </Array>
          </mxGeometry>
        </mxCell>
        <mxCell id="6B6Z-brlQ0UozbAUhB1C-20" value="&lt;font style=&quot;vertical-align: inherit;&quot;&gt;&lt;font style=&quot;vertical-align: inherit;&quot;&gt;&lt;font style=&quot;vertical-align: inherit;&quot;&gt;&lt;font style=&quot;vertical-align: inherit;&quot;&gt;Conteneres&lt;/font&gt;&lt;/font&gt;&lt;br&gt;&lt;/font&gt;&lt;/font&gt;" style="rounded=1;whiteSpace=wrap;html=1;" vertex="1" parent="1">
          <mxGeometry x="560" y="765" width="240" height="60" as="geometry" />
        </mxCell>
        <object label="&lt;font style=&quot;vertical-align: inherit;&quot;&gt;&lt;font style=&quot;vertical-align: inherit;&quot;&gt;&lt;font style=&quot;vertical-align: inherit;&quot;&gt;&lt;font style=&quot;vertical-align: inherit;&quot;&gt;&lt;font style=&quot;vertical-align: inherit;&quot;&gt;&lt;font style=&quot;vertical-align: inherit;&quot;&gt;Gerenciamento Individualizado&lt;/font&gt;&lt;/font&gt;&lt;/font&gt;&lt;/font&gt;&lt;br&gt;&lt;/font&gt;&lt;/font&gt;" id="6B6Z-brlQ0UozbAUhB1C-22">
          <mxCell style="rounded=1;whiteSpace=wrap;html=1;" vertex="1" parent="1">
            <mxGeometry x="680" y="900" width="240" height="60" as="geometry" />
          </mxCell>
        </object>
        <object label="&lt;font style=&quot;vertical-align: inherit;&quot;&gt;&lt;font style=&quot;vertical-align: inherit;&quot;&gt;&lt;font style=&quot;vertical-align: inherit;&quot;&gt;&lt;font style=&quot;vertical-align: inherit;&quot;&gt;&lt;font style=&quot;vertical-align: inherit;&quot;&gt;&lt;font style=&quot;vertical-align: inherit;&quot;&gt;&lt;font style=&quot;vertical-align: inherit;&quot;&gt;&lt;font style=&quot;vertical-align: inherit;&quot;&gt;Composição / Docker Compose&lt;/font&gt;&lt;/font&gt;&lt;/font&gt;&lt;/font&gt;&lt;/font&gt;&lt;/font&gt;&lt;br&gt;&lt;/font&gt;&lt;/font&gt;" id="6B6Z-brlQ0UozbAUhB1C-24">
          <mxCell style="rounded=1;whiteSpace=wrap;html=1;" vertex="1" parent="1">
            <mxGeometry x="680" y="1000" width="240" height="60" as="geometry" />
          </mxCell>
        </object>
        <mxCell id="6B6Z-brlQ0UozbAUhB1C-26" value="&lt;font style=&quot;vertical-align: inherit;&quot;&gt;&lt;font style=&quot;vertical-align: inherit;&quot;&gt;GIT&lt;/font&gt;&lt;/font&gt;" style="rounded=1;whiteSpace=wrap;html=1;container=1;fontStyle=2" vertex="1" parent="1">
          <mxGeometry y="70" width="120" height="1000" as="geometry" />
        </mxCell>
        <mxCell id="6B6Z-brlQ0UozbAUhB1C-27" style="edgeStyle=orthogonalEdgeStyle;rounded=0;orthogonalLoop=1;jettySize=auto;html=1;exitX=0;exitY=1;exitDx=0;exitDy=0;entryX=0.25;entryY=1;entryDx=0;entryDy=0;" edge="1" parent="1" source="6B6Z-brlQ0UozbAUhB1C-26" target="6B6Z-brlQ0UozbAUhB1C-26">
          <mxGeometry relative="1" as="geometry" />
        </mxCell>
        <mxCell id="6B6Z-brlQ0UozbAUhB1C-28" value="&lt;font style=&quot;vertical-align: inherit;&quot;&gt;&lt;font style=&quot;vertical-align: inherit;&quot;&gt;&lt;font style=&quot;vertical-align: inherit;&quot;&gt;&lt;font style=&quot;vertical-align: inherit;&quot;&gt;&lt;font style=&quot;vertical-align: inherit;&quot;&gt;&lt;font style=&quot;vertical-align: inherit;&quot;&gt;WebApp&amp;nbsp; Mobile /PWA&lt;/font&gt;&lt;/font&gt;&lt;/font&gt;&lt;/font&gt;&lt;/font&gt;&lt;/font&gt;" style="rounded=1;whiteSpace=wrap;html=1;" vertex="1" parent="1">
          <mxGeometry x="560" y="250" width="240" height="60" as="geometry" />
        </mxCell>
        <mxCell id="6B6Z-brlQ0UozbAUhB1C-33" style="edgeStyle=orthogonalEdgeStyle;rounded=0;orthogonalLoop=1;jettySize=auto;html=1;" edge="1" parent="1" target="6B6Z-brlQ0UozbAUhB1C-30">
          <mxGeometry relative="1" as="geometry">
            <mxPoint x="500" y="280" as="sourcePoint" />
            <Array as="points">
              <mxPoint x="500" y="370" />
            </Array>
          </mxGeometry>
        </mxCell>
        <mxCell id="6B6Z-brlQ0UozbAUhB1C-30" value="&lt;font style=&quot;vertical-align: inherit;&quot;&gt;&lt;font style=&quot;vertical-align: inherit;&quot;&gt;&lt;font style=&quot;vertical-align: inherit;&quot;&gt;&lt;font style=&quot;vertical-align: inherit;&quot;&gt;&lt;font style=&quot;vertical-align: inherit;&quot;&gt;&lt;font style=&quot;vertical-align: inherit;&quot;&gt;&lt;font style=&quot;vertical-align: inherit;&quot;&gt;&lt;font style=&quot;vertical-align: inherit;&quot;&gt;Responsividade /Bootstrap&lt;/font&gt;&lt;/font&gt;&lt;/font&gt;&lt;/font&gt;&lt;/font&gt;&lt;/font&gt;&lt;/font&gt;&lt;/font&gt;" style="rounded=1;whiteSpace=wrap;html=1;" vertex="1" parent="1">
          <mxGeometry x="560" y="340" width="240" height="60" as="geometry" />
        </mxCell>
        <mxCell id="6B6Z-brlQ0UozbAUhB1C-35" style="edgeStyle=orthogonalEdgeStyle;rounded=0;orthogonalLoop=1;jettySize=auto;html=1;" edge="1" parent="1" target="6B6Z-brlQ0UozbAUhB1C-34">
          <mxGeometry relative="1" as="geometry">
            <mxPoint x="500" y="350" as="sourcePoint" />
            <Array as="points">
              <mxPoint x="500" y="450" />
            </Array>
          </mxGeometry>
        </mxCell>
        <mxCell id="6B6Z-brlQ0UozbAUhB1C-34" value="&lt;font style=&quot;vertical-align: inherit;&quot;&gt;&lt;font style=&quot;vertical-align: inherit;&quot;&gt;&lt;font style=&quot;vertical-align: inherit;&quot;&gt;&lt;font style=&quot;vertical-align: inherit;&quot;&gt;&lt;font style=&quot;vertical-align: inherit;&quot;&gt;&lt;font style=&quot;vertical-align: inherit;&quot;&gt;&lt;font style=&quot;vertical-align: inherit;&quot;&gt;&lt;font style=&quot;vertical-align: inherit;&quot;&gt;&lt;font style=&quot;vertical-align: inherit;&quot;&gt;&lt;font style=&quot;vertical-align: inherit;&quot;&gt;Framework/Angular&lt;/font&gt;&lt;/font&gt;&lt;/font&gt;&lt;/font&gt;&lt;/font&gt;&lt;/font&gt;&lt;/font&gt;&lt;/font&gt;&lt;/font&gt;&lt;/font&gt;" style="rounded=1;whiteSpace=wrap;html=1;" vertex="1" parent="1">
          <mxGeometry x="560" y="420" width="240" height="60" as="geometry" />
        </mxCell>
        <mxCell id="6B6Z-brlQ0UozbAUhB1C-36" value="&lt;font style=&quot;vertical-align: inherit;&quot;&gt;&lt;font style=&quot;vertical-align: inherit;&quot;&gt;&lt;font style=&quot;vertical-align: inherit;&quot;&gt;&lt;font style=&quot;vertical-align: inherit;&quot;&gt;&lt;font style=&quot;vertical-align: inherit;&quot;&gt;&lt;font style=&quot;vertical-align: inherit;&quot;&gt;Requesitos /Casos de uso&lt;/font&gt;&lt;/font&gt;&lt;br&gt;&lt;/font&gt;&lt;/font&gt;&lt;/font&gt;&lt;/font&gt;" style="rounded=1;whiteSpace=wrap;html=1;" vertex="1" parent="1">
          <mxGeometry x="920" y="70" width="240" height="60" as="geometry" />
        </mxCell>
        <mxCell id="6B6Z-brlQ0UozbAUhB1C-71" style="edgeStyle=orthogonalEdgeStyle;rounded=0;orthogonalLoop=1;jettySize=auto;html=1;entryX=0.005;entryY=0.502;entryDx=0;entryDy=0;entryPerimeter=0;" edge="1" parent="1" source="6B6Z-brlQ0UozbAUhB1C-39" target="6B6Z-brlQ0UozbAUhB1C-70">
          <mxGeometry relative="1" as="geometry" />
        </mxCell>
        <mxCell id="6B6Z-brlQ0UozbAUhB1C-39" value="" style="verticalLabelPosition=bottom;verticalAlign=top;html=1;shadow=0;dashed=0;strokeWidth=1;shape=mxgraph.android.phone2;strokeColor=#c0c0c0;fillColor=#66FF66;" vertex="1" parent="1">
          <mxGeometry y="1340" width="240" height="440" as="geometry" />
        </mxCell>
        <mxCell id="6B6Z-brlQ0UozbAUhB1C-40" value="Layout-Navegação" style="rounded=1;whiteSpace=wrap;html=1;" vertex="1" parent="1">
          <mxGeometry x="20" y="1250" width="160" height="60" as="geometry" />
        </mxCell>
        <mxCell id="6B6Z-brlQ0UozbAUhB1C-55" value="Lista dos Eventos" style="html=1;shadow=0;dashed=0;fillColor=#343A40;strokeColor=none;fontSize=16;fontColor=#ffffff;align=left;spacing=15;" vertex="1" parent="1">
          <mxGeometry x="10" y="1380" width="220" height="30" as="geometry" />
        </mxCell>
        <mxCell id="6B6Z-brlQ0UozbAUhB1C-62" value="" style="html=1;shadow=0;dashed=0;shape=mxgraph.bootstrap.rrect;rSize=5;strokeColor=#DFDFDF;html=1;whiteSpace=wrap;fillColor=#FFFFFF;fontColor=#000000;" vertex="1" parent="1">
          <mxGeometry x="20" y="1460" width="200" height="150" as="geometry" />
        </mxCell>
        <mxCell id="6B6Z-brlQ0UozbAUhB1C-63" value="&lt;font style=&quot;vertical-align: inherit;&quot;&gt;&lt;font style=&quot;vertical-align: inherit;&quot;&gt;lista 1 dd\mm\aa&lt;/font&gt;&lt;/font&gt;" style="strokeColor=inherit;fillColor=inherit;gradientColor=inherit;fontColor=inherit;html=1;shadow=0;dashed=0;shape=mxgraph.bootstrap.topButton;rSize=5;perimeter=none;whiteSpace=wrap;resizeWidth=1;align=left;spacing=10;" vertex="1" parent="6B6Z-brlQ0UozbAUhB1C-62">
          <mxGeometry width="200" height="30" relative="1" as="geometry" />
        </mxCell>
        <mxCell id="6B6Z-brlQ0UozbAUhB1C-64" value="lista 2 dd\mm\aa" style="strokeColor=inherit;fillColor=inherit;gradientColor=inherit;fontColor=inherit;html=1;shadow=0;dashed=0;perimeter=none;whiteSpace=wrap;resizeWidth=1;align=left;spacing=10;" vertex="1" parent="6B6Z-brlQ0UozbAUhB1C-62">
          <mxGeometry width="200" height="30" relative="1" as="geometry">
            <mxPoint y="30" as="offset" />
          </mxGeometry>
        </mxCell>
        <mxCell id="6B6Z-brlQ0UozbAUhB1C-65" value="lista 3 dd\mm\aa" style="strokeColor=inherit;fillColor=inherit;gradientColor=inherit;fontColor=inherit;html=1;shadow=0;dashed=0;perimeter=none;whiteSpace=wrap;resizeWidth=1;align=left;spacing=10;" vertex="1" parent="6B6Z-brlQ0UozbAUhB1C-62">
          <mxGeometry width="200" height="30" relative="1" as="geometry">
            <mxPoint y="60" as="offset" />
          </mxGeometry>
        </mxCell>
        <mxCell id="6B6Z-brlQ0UozbAUhB1C-66" value="lista 4 dd\mm\aa" style="strokeColor=inherit;fillColor=inherit;gradientColor=inherit;fontColor=inherit;html=1;shadow=0;dashed=0;perimeter=none;whiteSpace=wrap;resizeWidth=1;align=left;spacing=10;" vertex="1" parent="6B6Z-brlQ0UozbAUhB1C-62">
          <mxGeometry width="200" height="30" relative="1" as="geometry">
            <mxPoint y="90" as="offset" />
          </mxGeometry>
        </mxCell>
        <mxCell id="6B6Z-brlQ0UozbAUhB1C-67" value="lista 5 dd\mm\aa" style="strokeColor=inherit;fillColor=inherit;gradientColor=inherit;fontColor=inherit;html=1;shadow=0;dashed=0;shape=mxgraph.bootstrap.bottomButton;rSize=5;perimeter=none;whiteSpace=wrap;resizeWidth=1;resizeHeight=0;align=left;spacing=10;" vertex="1" parent="6B6Z-brlQ0UozbAUhB1C-62">
          <mxGeometry y="1" width="200" height="30" relative="1" as="geometry">
            <mxPoint y="-30" as="offset" />
          </mxGeometry>
        </mxCell>
        <mxCell id="6B6Z-brlQ0UozbAUhB1C-68" value="Minhas Listas" style="html=1;shadow=0;dashed=0;shape=mxgraph.bootstrap.rrect;rSize=5;strokeColor=none;strokeWidth=1;fillColor=#33A64C;fontColor=#FFFFFF;whiteSpace=wrap;align=left;verticalAlign=middle;spacingLeft=0;fontStyle=1;fontSize=14;spacing=5;" vertex="1" parent="1">
          <mxGeometry x="68.75" y="1430" width="102.5" height="20" as="geometry" />
        </mxCell>
        <mxCell id="6B6Z-brlQ0UozbAUhB1C-70" value="" style="verticalLabelPosition=bottom;verticalAlign=top;html=1;shadow=0;dashed=0;strokeWidth=1;shape=mxgraph.android.phone2;strokeColor=#c0c0c0;" vertex="1" parent="1">
          <mxGeometry x="310" y="1340" width="230" height="440" as="geometry" />
        </mxCell>
        <mxCell id="6B6Z-brlQ0UozbAUhB1C-72" value="Nova Lista" style="html=1;shadow=0;dashed=0;shape=mxgraph.bootstrap.rrect;rSize=5;strokeColor=none;strokeWidth=1;fillColor=#33A64C;fontColor=#FFFFFF;whiteSpace=wrap;align=left;verticalAlign=middle;spacingLeft=0;fontStyle=1;fontSize=14;spacing=5;" vertex="1" parent="1">
          <mxGeometry x="373.75" y="1430" width="102.5" height="20" as="geometry" />
        </mxCell>
      </root>
    </mxGraphModel>
  </diagram>
</mxfile>
